<svg width="24" height="24" viewBox="0 0 24 24" fill="none" xmlns="http://www.w3.org/2000/svg">
<path d="M18 12.8571V8.57141C18 6.98011 17.3679 5.45399 16.2426 4.32877C15.1174 3.20355 13.5913 2.57141 12 2.57141C10.4087 2.57141 8.88257 3.20355 7.75735 4.32877C6.63213 5.45399 5.99999 6.98011 5.99999 8.57141L5.99999 12.8571C5.9745 14.9743 5.38257 17.046 4.28571 18.8571L19.7143 18.8571C18.6174 17.046 18.0255 14.9743 18 12.8571Z" stroke="#565D6D" stroke-width="2.05714" stroke-miterlimit="10" stroke-linecap="square"/>
<path d="M9.5777 20.5714C9.75581 21.0713 10.0842 21.5039 10.5179 21.8098C10.9516 22.1156 11.4693 22.2798 12 22.2798C12.5307 22.2798 13.0484 22.1156 13.4821 21.8098C13.9157 21.5039 14.2442 21.0713 14.4223 20.5714H9.5777Z" fill="#565D6D"/>
</svg>
