<svg width="16" height="16" viewBox="0 0 16 16" fill="none" xmlns="http://www.w3.org/2000/svg">
<path d="M5.05439 8.79999C4.37849 9.12782 3.80856 9.63935 3.40986 10.276C3.01116 10.9127 2.7998 11.6488 2.79999 12.4C2.79999 12.4 4.39999 14 7.99999 14C11.6 14 13.2 12.4 13.2 12.4C13.2001 11.6487 12.9886 10.9126 12.5898 10.2759C12.1909 9.63919 11.6208 9.1277 10.9448 8.79999" stroke="#449342" stroke-width="0.8" stroke-linecap="round" stroke-linejoin="round"/>
<path d="M10.8 4.8C10.8 6.3464 9.54641 8.4 8.00001 8.4C6.45361 8.4 5.20001 6.3464 5.20001 4.8C5.20001 4.05739 5.49501 3.3452 6.02011 2.8201C6.54522 2.295 7.25741 2 8.00001 2C8.74262 2 9.45481 2.295 9.97991 2.8201C10.505 3.3452 10.8 4.05739 10.8 4.8Z" stroke="#449342" stroke-width="0.8" stroke-linecap="round" stroke-linejoin="round"/>
</svg>
