<svg width="24" height="24" viewBox="0 0 24 24" fill="none" xmlns="http://www.w3.org/2000/svg">
<path d="M8.05714 16.5429L18.8571 3.42859" stroke="#6F7787" stroke-width="2.05714" stroke-miterlimit="10"/>
<path d="M15.9429 16.4572L5.14285 3.42859" stroke="#6F7787" stroke-width="2.05714" stroke-miterlimit="10"/>
<path d="M18 20.5714C19.4202 20.5714 20.5714 19.4202 20.5714 18C20.5714 16.5799 19.4202 15.4286 18 15.4286C16.5798 15.4286 15.4286 16.5799 15.4286 18C15.4286 19.4202 16.5798 20.5714 18 20.5714Z" stroke="#6F7787" stroke-width="2.05714" stroke-miterlimit="10" stroke-linecap="square"/>
<path d="M6 20.5714C7.42016 20.5714 8.57143 19.4202 8.57143 18C8.57143 16.5799 7.42016 15.4286 6 15.4286C4.57984 15.4286 3.42857 16.5799 3.42857 18C3.42857 19.4202 4.57984 20.5714 6 20.5714Z" stroke="#6F7787" stroke-width="2.05714" stroke-miterlimit="10" stroke-linecap="square"/>
</svg>
