<svg width="24" height="24" viewBox="0 0 24 24" fill="none" xmlns="http://www.w3.org/2000/svg">
<path d="M9.5 6.5L9.5 9.5L6.5 9.5L6.5 6.5L9.5 6.5ZM11 5L5 5L5 11L11 11L11 5ZM9.5 14.5V17.5H6.5L6.5 14.5H9.5ZM11 13L5 13L5 19L11 19V13ZM17.5 6.5V9.5H14.5V6.5L17.5 6.5ZM19 5L13 5L13 11H19L19 5ZM13 13H14.5V14.5H13V13ZM14.5 14.5H16V16H14.5V14.5ZM16 13H17.5V14.5H16V13ZM13 16H14.5V17.5H13V16ZM14.5 17.5H16V19H14.5V17.5ZM16 16H17.5V17.5H16V16ZM17.5 14.5H19V16H17.5V14.5ZM17.5 17.5H19V19H17.5V17.5ZM22 7L20 7V4L17 4V2L22 2V7ZM22 22V17L20 17V20H17L17 22H22ZM2 22H7L7 20H4L4 17H2L2 22ZM2 2L2 7L4 7L4 4L7 4L7 2L2 2Z" fill="#171A1F"/>
</svg>
