<svg width="24" height="24" viewBox="0 0 24 24" fill="none" xmlns="http://www.w3.org/2000/svg">
<path d="M12 17.1428C14.3669 17.1428 16.2857 15.2241 16.2857 12.8571C16.2857 10.4902 14.3669 8.57141 12 8.57141C9.63307 8.57141 7.71429 10.4902 7.71429 12.8571C7.71429 15.2241 9.63307 17.1428 12 17.1428Z" stroke="#565D6D" stroke-width="2.05714" stroke-miterlimit="10" stroke-linecap="square"/>
<path d="M4.28571 3.42859L5.99999 3.42859" stroke="#565D6D" stroke-width="2.05714" stroke-miterlimit="10" stroke-linecap="square"/>
<path d="M19.7143 20.5714L4.2857 20.5714C3.83104 20.5714 3.395 20.3908 3.07351 20.0693C2.75202 19.7479 2.57141 19.3118 2.57141 18.8572L2.57141 7.7143C2.57141 7.25965 2.75202 6.82361 3.07351 6.50212C3.395 6.18063 3.83104 6.00002 4.2857 6.00002L7.71427 6.00002L9.42855 3.42859L14.5714 3.42859L16.2857 6.00002H19.7143C20.1689 6.00002 20.605 6.18063 20.9265 6.50212C21.2479 6.82361 21.4286 7.25965 21.4286 7.7143L21.4286 18.8572C21.4286 19.3118 21.2479 19.7479 20.9265 20.0693C20.605 20.3908 20.1689 20.5714 19.7143 20.5714Z" stroke="#565D6D" stroke-width="2.05714" stroke-miterlimit="10" stroke-linecap="square"/>
<path d="M5.14285 9.42852C5.61624 9.42852 5.99999 9.04476 5.99999 8.57138C5.99999 8.09799 5.61624 7.71423 5.14285 7.71423C4.66946 7.71423 4.28571 8.09799 4.28571 8.57138C4.28571 9.04476 4.66946 9.42852 5.14285 9.42852Z" fill="#565D6D"/>
</svg>
