<svg width="28" height="28" viewBox="0 0 28 28" fill="none" xmlns="http://www.w3.org/2000/svg">
<path d="M14 5.39C16.8 5.39 17.136 5.4005 18.2427 5.4509C18.9087 5.45876 19.5684 5.58118 20.1929 5.8128C20.6488 5.9811 21.0612 6.24948 21.3997 6.5982C21.7484 6.9367 22.0168 7.34908 22.1851 7.805C22.4167 8.42949 22.5391 9.08919 22.547 9.7552C22.5974 10.864 22.61 11.2 22.61 14C22.61 16.8 22.5995 17.136 22.5491 18.2427C22.5412 18.9087 22.4188 19.5684 22.1872 20.1929C22.0124 20.6455 21.7449 21.0566 21.4018 21.3997C21.0587 21.7428 20.6476 22.0103 20.195 22.1851C19.5705 22.4167 18.9108 22.5391 18.2448 22.547C17.1381 22.5974 16.8056 22.6079 14.0021 22.6079C11.1986 22.6079 10.8661 22.5974 9.7594 22.547C9.09339 22.5391 8.43369 22.4167 7.8092 22.1851C7.35328 22.0168 6.9409 21.7484 6.6024 21.3997C6.25368 21.0612 5.9853 20.6488 5.817 20.1929C5.58538 19.5684 5.46296 18.9087 5.4551 18.2427C5.4026 17.136 5.39 16.8035 5.39 14C5.39 11.1965 5.4005 10.864 5.4509 9.7573C5.45876 9.09129 5.58118 8.43159 5.8128 7.8071C5.98171 7.35099 6.25082 6.93859 6.6003 6.6003C6.9388 6.25158 7.35118 5.9832 7.8071 5.8149C8.43159 5.58328 9.09129 5.46086 9.7573 5.453C10.864 5.4026 11.2 5.39 14 5.39ZM14 3.5C11.1482 3.5 10.7905 3.5119 9.6712 3.563C8.79985 3.58146 7.9379 3.74713 7.1218 4.053C6.42163 4.31651 5.78722 4.72927 5.2626 5.2626C4.72851 5.78701 4.31503 6.42144 4.0509 7.1218C3.74503 7.9379 3.57936 8.79985 3.5609 9.6712C3.5119 10.7905 3.5 11.1482 3.5 14C3.5 16.8518 3.5119 17.2095 3.563 18.3288C3.58146 19.2001 3.74713 20.0621 4.053 20.8782C4.31713 21.5786 4.73061 22.213 5.2647 22.7374C5.78911 23.2715 6.42354 23.685 7.1239 23.9491C7.94 24.255 8.80195 24.4206 9.6733 24.4391C10.7933 24.4902 11.1503 24.5021 14.0021 24.5021C16.8539 24.5021 17.2116 24.4902 18.3309 24.4391C19.2022 24.4206 20.0642 24.255 20.8803 23.9491C21.5775 23.6788 22.2107 23.2662 22.7395 22.7374C23.2683 22.2086 23.6809 21.5754 23.9512 20.8782C24.2571 20.0621 24.4227 19.2001 24.4412 18.3288C24.4923 17.2088 24.5042 16.8518 24.5042 14C24.5042 11.1482 24.4923 10.7905 24.4412 9.6712C24.4227 8.79985 24.2571 7.9379 23.9512 7.1218C23.6871 6.42144 23.2736 5.78701 22.7395 5.2626C22.2151 4.72851 21.5807 4.31503 20.8803 4.0509C20.0642 3.74503 19.2022 3.57936 18.3309 3.5609C17.2095 3.5119 16.8518 3.5 14 3.5Z" fill="#EA4335"/>
<path d="M14 8.60999C12.9339 8.60999 11.8918 8.9261 11.0055 9.51836C10.1191 10.1106 9.42823 10.9524 9.02028 11.9373C8.61232 12.9222 8.50558 14.006 8.71356 15.0515C8.92153 16.0971 9.43488 17.0575 10.1887 17.8113C10.9425 18.5651 11.9029 19.0784 12.9485 19.2864C13.994 19.4944 15.0778 19.3877 16.0627 18.9797C17.0475 18.5717 17.8893 17.8809 18.4816 16.9945C19.0739 16.1081 19.39 15.066 19.39 14C19.39 12.5705 18.8221 11.1995 17.8113 10.1887C16.8005 9.17786 15.4295 8.60999 14 8.60999ZM14 17.5C13.3078 17.5 12.6311 17.2947 12.0555 16.9101C11.4799 16.5255 11.0313 15.9789 10.7664 15.3394C10.5015 14.6998 10.4322 13.9961 10.5672 13.3172C10.7023 12.6382 11.0356 12.0146 11.5251 11.5251C12.0146 11.0356 12.6382 10.7023 13.3172 10.5672C13.9961 10.4322 14.6998 10.5015 15.3394 10.7664C15.9789 11.0313 16.5255 11.4799 16.9101 12.0555C17.2947 12.6311 17.5 13.3078 17.5 14C17.5 14.9282 17.1312 15.8185 16.4749 16.4749C15.8185 17.1312 14.9282 17.5 14 17.5Z" fill="#EA4335"/>
<path d="M19.6049 9.65513C20.3008 9.65513 20.8649 9.09101 20.8649 8.39513C20.8649 7.69925 20.3008 7.13513 19.6049 7.13513C18.909 7.13513 18.3449 7.69925 18.3449 8.39513C18.3449 9.09101 18.909 9.65513 19.6049 9.65513Z" fill="#EA4335"/>
</svg>
