<svg width="28" height="28" viewBox="0 0 28 28" fill="none" xmlns="http://www.w3.org/2000/svg">
<path d="M24.0681 12.0911L14.0455 12.0911L14.0455 16.3863L19.726 16.3863C18.816 19.25 16.576 20.2048 14 20.2048C13.002 20.2061 12.0184 19.9667 11.1326 19.5068C10.2469 19.0469 9.48512 18.3801 8.91202 17.563C8.33891 16.7459 7.97137 15.8027 7.84056 14.8133C7.70975 13.8238 7.81954 12.8175 8.16061 11.8795C8.50168 10.9416 9.06398 10.0998 9.79978 9.42548C10.5356 8.7512 11.4232 8.26436 12.3873 8.00627C13.3513 7.74817 14.3634 7.72645 15.3377 7.94293C16.312 8.15941 17.2196 8.60771 17.9837 9.2498L21.105 6.2769C19.8481 5.11916 18.3276 4.2857 16.6755 3.84886C15.0234 3.41203 13.2896 3.38502 11.6248 3.77019C9.95986 4.15536 8.41413 4.94106 7.12175 6.05908C5.82937 7.17711 4.8294 8.59368 4.20864 10.1858C3.58789 11.7779 3.3651 13.4975 3.55964 15.1953C3.75417 16.893 4.36014 18.5177 5.32493 19.9281C6.28973 21.3386 7.58421 22.4923 9.09598 23.289C10.6078 24.0857 12.2911 24.5014 14 24.5C19.7897 24.5 25.0229 20.6815 24.0681 12.0911Z" fill="#449342"/>
</svg>
