<svg width="24" height="24" viewBox="0 0 24 24" fill="none" xmlns="http://www.w3.org/2000/svg">
<path d="M3.59319 21.077L4.22381 20.6171L3.59319 21.077ZM3.59319 21.077C3.70027 21.2238 3.85124 21.3328 4.0243 21.3882L3.42859 20.5714C3.42847 20.7531 3.48611 20.9302 3.59319 21.077ZM12.0291 21.2861L12 21.2852L11.971 21.2861C9.43089 21.3599 6.89309 21.0818 4.4298 20.4597C4.46055 18.9474 5.07471 17.5037 6.14636 16.432C7.24449 15.3339 8.73332 14.7161 10.2863 14.7142H13.7137C15.2667 14.7161 16.7555 15.3339 17.8537 16.432C18.9253 17.5037 19.5395 18.9474 19.5702 20.4597C17.1069 21.0818 14.5691 21.3599 12.0291 21.2861Z" stroke="#565D6D" stroke-width="2"/>
<path d="M15.7143 6.46709C15.7143 7.49862 15.2907 8.66621 14.5712 9.57022C13.8523 10.4734 12.9364 11 12 11C11.0636 11 10.1477 10.4734 9.42882 9.57022C8.70926 8.66621 8.28571 7.49862 8.28571 6.46709C8.28571 5.482 8.67703 4.53726 9.37359 3.8407C10.0702 3.14413 11.0149 2.75281 12 2.75281C12.9851 2.75281 13.9298 3.14413 14.6264 3.8407C15.323 4.53726 15.7143 5.482 15.7143 6.46709Z" stroke="#565D6D" stroke-width="2"/>
</svg>
