<svg width="28" height="28" viewBox="0 0 28 28" fill="none" xmlns="http://www.w3.org/2000/svg">
<path d="M25.2 14C25.1997 11.8597 24.5861 9.76431 23.4319 7.96189C22.2777 6.15948 20.6312 4.72553 18.6873 3.82979C16.7435 2.93405 14.5837 2.61404 12.4636 2.90765C10.3435 3.20125 8.35198 4.09617 6.72472 5.48647C5.09746 6.87676 3.90264 8.70421 3.2817 10.7525C2.66076 12.8007 2.63972 14.984 3.22105 17.0438C3.80238 19.1037 4.96176 20.9538 6.56191 22.3752C8.16206 23.7966 10.136 24.7298 12.25 25.0642L12.25 17.2375H9.4066V14H12.25L12.25 11.5325C12.25 8.7255 13.9223 7.175 16.4801 7.175C17.3201 7.18665 18.1581 7.25964 18.9875 7.3934L18.9875 10.15H17.5749C17.3342 10.118 17.0894 10.1406 16.8586 10.2162C16.6278 10.2917 16.4169 10.4181 16.2417 10.5862C16.0664 10.7543 15.9312 10.9596 15.8461 11.1871C15.761 11.4145 15.7281 11.6582 15.75 11.9L15.75 14H18.8566L18.3596 17.2375H15.75L15.75 25.0642C18.3847 24.6474 20.7841 23.304 22.5164 21.2757C24.2488 19.2474 25.2004 16.6674 25.2 14Z" fill="#1877F2"/>
</svg>
