<svg width="16" height="16" viewBox="0 0 16 16" fill="none" xmlns="http://www.w3.org/2000/svg">
<path d="M10.0112 9.41114L9.03362 10.6335C7.51877 9.74351 6.25645 8.48119 5.36642 6.96634L6.58882 5.98874C6.73211 5.87407 6.83338 5.71516 6.8768 5.53685C6.92022 5.35853 6.90335 5.17085 6.82882 5.00314L5.71442 2.49354C5.6345 2.3137 5.49331 2.16809 5.31602 2.08267C5.13873 1.99725 4.93686 1.97757 4.74642 2.02714L2.62482 2.57674C2.42693 2.62862 2.2549 2.7512 2.14125 2.92131C2.0276 3.09142 1.9802 3.29726 2.00802 3.49994C2.38025 6.15093 3.60544 8.60867 5.49836 10.5016C7.39129 12.3945 9.84902 13.6197 12.5 13.9919C12.7026 14.0199 12.9084 13.9725 13.0785 13.8589C13.2485 13.7452 13.3709 13.5731 13.4224 13.3751L13.9728 11.2543C14.0224 11.0639 14.0027 10.862 13.9173 10.6847C13.8319 10.5074 13.6863 10.3663 13.5064 10.2863L10.9968 9.17194C10.8291 9.0976 10.6416 9.08074 10.4634 9.124C10.2851 9.16726 10.1262 9.26821 10.0112 9.41114Z" stroke="#171A1F" stroke-width="0.8" stroke-linecap="round" stroke-linejoin="round"/>
</svg>
