<svg width="16" height="16" viewBox="0 0 16 16" fill="none" xmlns="http://www.w3.org/2000/svg">
<path d="M12 14L3.99999 14C3.33759 14 2.79999 13.4624 2.79999 12.8L2.79999 8.79998C2.79999 8.13758 3.33759 7.59998 3.99999 7.59998L12 7.59998C12.6624 7.59998 13.2 8.13758 13.2 8.79998L13.2 12.8C13.2 13.4624 12.6624 14 12 14Z" stroke="#171A1F" stroke-width="0.8" stroke-linecap="round" stroke-linejoin="round"/>
<path d="M5.20001 6V4.8C5.20001 3.2536 6.45361 2 8.00001 2C9.54641 2 10.8 3.2536 10.8 4.8V6" stroke="#171A1F" stroke-width="0.8" stroke-linecap="round" stroke-linejoin="round"/>
<path d="M7.99999 12C8.66273 12 9.19999 11.4627 9.19999 10.8C9.19999 10.1372 8.66273 9.59998 7.99999 9.59998C7.33725 9.59998 6.79999 10.1372 6.79999 10.8C6.79999 11.4627 7.33725 12 7.99999 12Z" stroke="#171A1F" stroke-width="0.8" stroke-linecap="round" stroke-linejoin="round"/>
</svg>
