<svg width="64" height="64" viewBox="0 0 64 64" fill="none" xmlns="http://www.w3.org/2000/svg">
<path d="M33.6409 47.5898C40.4383 47.5898 45.9486 42.0794 45.9486 35.2821C45.9486 28.4847 40.4383 22.9744 33.6409 22.9744C26.8436 22.9744 21.3333 28.4847 21.3333 35.2821C21.3333 42.0794 26.8436 47.5898 33.6409 47.5898Z" stroke="white" stroke-width="1.96923" stroke-miterlimit="10" stroke-linecap="square"/>
<path d="M12.3076 53.3333L51.6923 53.3333C52.7803 53.3333 53.8238 52.9011 54.5932 52.1317C55.3626 51.3623 55.7948 50.3188 55.7948 49.2307L55.7948 21.3333C55.7948 20.2452 55.3626 19.2017 54.5932 18.4324C53.8238 17.663 52.7803 17.2307 51.6923 17.2307L44.3076 17.2307L39.3846 9.84613L27.8974 9.84613L22.9743 17.2307L12.3076 17.2307C11.2196 17.2307 10.1761 17.663 9.40669 18.4324C8.63731 19.2017 8.20508 20.2452 8.20508 21.3333L8.20508 49.2307C8.20508 50.3188 8.63731 51.3623 9.40669 52.1317C10.1761 52.9011 11.2196 53.3333 12.3076 53.3333Z" stroke="white" stroke-width="1.96923" stroke-miterlimit="10" stroke-linecap="square"/>
<path d="M26.2563 35.2821C26.2563 33.3236 27.0344 31.4452 28.4193 30.0604C29.8041 28.6755 31.6824 27.8975 33.641 27.8975" stroke="white" stroke-width="1.96923" stroke-miterlimit="10"/>
<path d="M16 27.0769C17.1329 27.0769 18.0513 26.1585 18.0513 25.0256C18.0513 23.8928 17.1329 22.9744 16 22.9744C14.8671 22.9744 13.9487 23.8928 13.9487 25.0256C13.9487 26.1585 14.8671 27.0769 16 27.0769Z" fill="white"/>
</svg>
