<svg width="34" height="34" viewBox="0 0 34 34" fill="none" xmlns="http://www.w3.org/2000/svg">
<path d="M5.94995 5.95L9.34995 5.95" stroke="white" stroke-width="2.04" stroke-miterlimit="10" stroke-linecap="square"/>
<path d="M8.07505 14.45C8.77921 14.45 9.35005 13.8792 9.35005 13.175C9.35005 12.4708 8.77921 11.9 8.07505 11.9C7.37089 11.9 6.80005 12.4708 6.80005 13.175C6.80005 13.8792 7.37089 14.45 8.07505 14.45Z" fill="white"/>
<path d="M6.8 28.05L27.2 28.05C27.8763 28.05 28.5249 27.7813 29.0031 27.3031C29.4813 26.8249 29.75 26.1763 29.75 25.5L29.75 11.9C29.75 11.2237 29.4813 10.5751 29.0031 10.0969C28.5249 9.61866 27.8763 9.35 27.2 9.35L22.95 9.35L20.4 5.1L13.6 5.1L11.05 9.35L6.8 9.35C6.1237 9.35 5.4751 9.61866 4.99688 10.0969C4.51866 10.5751 4.25 11.2237 4.25 11.9L4.25 25.5C4.25 26.1763 4.51866 26.8249 4.99688 27.3031C5.4751 27.7813 6.1237 28.05 6.8 28.05Z" stroke="white" stroke-width="2.04" stroke-miterlimit="10" stroke-linecap="square"/>
<path d="M17 24.65C20.2861 24.65 22.95 21.9861 22.95 18.7C22.95 15.4139 20.2861 12.75 17 12.75C13.714 12.75 11.05 15.4139 11.05 18.7C11.05 21.9861 13.714 24.65 17 24.65Z" stroke="white" stroke-width="2.04" stroke-miterlimit="10" stroke-linecap="square"/>
</svg>
